<?xml version="1.0" encoding="utf-8"?>
<!-- Generator: Adobe Illustrator 16.0.3, SVG Export Plug-In . SVG Version: 6.00 Build 0)  -->
<!DOCTYPE svg PUBLIC "-//W3C//DTD SVG 1.1//EN" "http://www.w3.org/Graphics/SVG/1.1/DTD/svg11.dtd">
<svg version="1.1" id="Layer_1" xmlns="http://www.w3.org/2000/svg" xmlns:xlink="http://www.w3.org/1999/xlink" x="0px" y="0px"
	 width="153.042px" height="140.458px" viewBox="0 0 153.042 140.458" enable-background="new 0 0 153.042 140.458"
	 xml:space="preserve">
<g>
	<g>
		<path fill="#939598" d="M20.705,21.276l10.203,2.539c0.862-1.882,1.345-3.973,1.345-6.173c0-0.388-0.017-0.771-0.046-1.151
			l-10.109,4.205L20.705,21.276z M30.877,23.881l-10.036-1.185l5.917,6.486C28.502,27.758,29.918,25.946,30.877,23.881z
			 M20.93,19.656l11.272-3.238c-0.163-1.973-0.711-3.838-1.622-5.62c-0.379-0.723-0.813-1.412-1.299-2.06l-6.983,9.128L20.93,19.656
			z M37.393,33.379H23.56c-0.395-0.553-0.763-1.128-1.099-1.726c0.997-0.365,1.944-0.834,2.814-1.405
			c0.495-0.313,0.969-0.653,1.424-1.02l-4.995-3.821l-0.699-0.534c-0.356-0.273-0.663-0.579-0.917-0.896
			c-1.454-1.804-1.286-4.239,0.352-6.144l0.723-0.75l8.088-8.382c-1.128-1.492-2.528-2.767-4.127-3.749l0.012,0.5
			c0,3.349-1.565,6.343-4,8.291c0.376-0.704,0.59-1.507,0.59-2.358c0-2.041-1.226-3.804-2.979-4.591v1.905h-2.342
			c-0.561,0.005-1.017,0.464-1.016,1.069h-2.65c-0.511,0-0.936,0.375-1.013,0.864c-0.038,0.246-0.057,0.498-0.057,0.753
			c0,0.389,0.044,0.768,0.128,1.132h3.834c0.565,0,1.027,0.461,1.027,1.027c0,0.565-0.462,1.026-1.027,1.026
			c-0.326,0-0.617-0.153-0.805-0.392c-0.187-0.212-0.46-0.346-0.763-0.349h-1.757c0.832,1.489,2.4,2.516,4.208,2.582
			c-2.176,1.398-3.863,3.097-4.88,4.986c-1.889-0.663-3.251-2.467-3.25-4.697l0.002-2.179v-2.227c0-0.949-0.751-1.731-1.778-1.784
			l0.003-1.297c1.704,1.211,3.049,1.238,3.304,0.918C10.112,9.885,9.96,9.049,9.16,8.044c1.927-1.145,2.606-2.437,2.415-2.878
			C11.398,4.762,10.2,4.403,8.343,4.83C8.203,2.103,6.9,0.703,6.256,0.703c-0.645,0-1.946,1.4-2.087,4.127
			c-1.856-0.427-3.055-0.068-3.23,0.335C0.747,5.606,1.426,6.897,3.353,8.043C2.551,9.049,2.4,9.885,2.596,10.131
			c0.253,0.32,1.6,0.293,3.303-0.917l0.003,1.398c-0.69,0.247-1.187,0.91-1.187,1.683v2.227c0,0.754,0.474,1.404,1.185,1.665
			c-0.02,0.802-0.233,1.412-0.899,1.979l1.129,0.605c0.303-0.628,0.474-1.341,0.474-2.083l0.002,0.64l-0.003,0.187
			c0,2.796,1.609,6.145,3.949,7.674c-0.544,0.799-1.357,1.4-2.358,1.683L5.609,27.58c-0.484,0.133-0.914,0.447-0.899,0.949
			c0.003,0.095,0.012,0.187,0.023,0.279C3.939,29.016,3.349,29.74,3.349,30.6c0,0.138,0.017,0.274,0.045,0.404
			c0.135-0.776,0.754-1.389,1.534-1.512c0.077,0.172,0.17,0.335,0.28,0.486c-0.598,0.576-0.752,1.508-0.318,2.258
			c0.069,0.121,0.15,0.229,0.241,0.328c-0.27-0.738-0.042-1.578,0.57-2.074c0.18,0.143,0.377,0.262,0.59,0.353
			c-0.168,0.766,0.167,1.589,0.882,2.002c0.119,0.069,0.245,0.124,0.372,0.163c-0.575-0.48-0.804-1.268-0.579-1.978
			c0.113,0.016,0.229,0.023,0.346,0.023c0.313-0.01,0.566-0.269,0.566-0.583L7.874,29.74c-0.003-0.37,0.408-0.609,0.862-0.351
			c0.718,0.452,1.029,1.337,0.774,2.131c0.086-0.102,0.164-0.214,0.227-0.337c0.305-0.581,0.267-1.253-0.038-1.784
			c-0.153-0.351-0.048-0.779,0.059-1.159c0.371-0.104,0.74-0.233,1.1-0.387c0.728,2.596,2.68,4.934,5.467,6.771
			c-1.836,1.27-3.041,3.388-3.041,5.779c0,3.869,3.156,7.025,7.025,7.025c3.868,0,7.024-3.157,7.024-7.025
			c0-1.916-0.773-3.656-2.024-4.925L37.393,33.379z M5.903,9.205c-0.002-1.44-0.022,0.043,0.03-1.633L3.472,9.53l2.175-2.156
			L2.074,5.633l3.889,1.365l0.293-5.444l0.293,5.444l3.889-1.365l-3.574,1.74l2.175,2.156L6.578,7.572
			C6.604,8.443,6.612,8.461,6.613,8.48c0,0.017-0.005,0.034-0.006,0.725L6.256,8.946L5.903,9.205z M6.14,15.612
			c0.118-0.219,0.189-0.465,0.202-0.727c0.485-0.115,0.892-0.438,1.119-0.869C7.431,14.794,6.875,15.443,6.14,15.612z M6.14,14.303
			c0.118-0.217,0.189-0.465,0.202-0.727c0.485-0.113,0.892-0.438,1.119-0.869C7.431,13.486,6.875,14.134,6.14,14.303z M6.14,12.995
			c0.118-0.219,0.189-0.464,0.202-0.727c0.485-0.115,0.892-0.438,1.119-0.87C7.431,12.178,6.875,12.826,6.14,12.995z M16.612,10.581
			c0.003-0.44,0.356-0.799,0.795-0.812l0.024-0.001h1.335v0.209h-1.335c-0.333,0-0.607,0.27-0.611,0.604H16.612z M17.834,10.587
			c0,0.222-0.182,0.402-0.403,0.402c-0.221,0-0.401-0.181-0.401-0.402s0.18-0.403,0.401-0.403
			C17.652,10.185,17.834,10.366,17.834,10.587z M19.633,43.057c-1.756,0-3.19-1.433-3.19-3.19c0-1.757,1.433-3.19,3.19-3.19
			c1.755,0,3.188,1.433,3.188,3.19C22.821,41.624,21.388,43.057,19.633,43.057z M9.408,10.704c0.055,1.622,1.861,2.927,3.027,2.927
			h1.833l-0.488-0.513l-0.169-0.178c-0.188-0.184-0.411-0.202-0.493-0.203H12.48C11.102,12.736,9.773,11.967,9.408,10.704z"/>
		<path fill="#001F5B" d="M0.765,49.358v26.234c0,10.711,8.682,19.392,19.389,19.392c10.708,0,19.389-8.681,19.389-19.392
			l0.001-26.234H0.765z M26.811,86.262c-1.935,1.223-4.225,1.93-6.679,1.93c-2.595,0-5.007-0.791-7.007-2.145V56.202h2.748v2.729
			h2.729v-2.729h2.745v2.729h2.729v-2.729h2.735V86.262z M19.964,61.896c-0.76,0-1.378,0.616-1.378,1.376v4.337h2.753v-4.337
			C21.34,62.511,20.724,61.896,19.964,61.896z"/>
	</g>
	<g>
		<path d="M3.136,120.72h-1.43c0-9.004,0.007-13.224,0.02-12.659h1.391L3.136,120.72z"/>
		<path d="M13.519,120.72l-1.259-0.019v-5.229c0-1.818-0.728-2.728-2.182-2.728c-0.803,0-1.442,0.349-1.919,1.045
			c-0.476,0.695-0.714,1.583-0.714,2.66v4.271l-1.298-0.019l0.019-8.334H7.05l0.356,1.9c0.64-1.43,1.7-2.144,3.179-2.144
			c1.958,0,2.935,1.071,2.935,3.216L13.519,120.72L13.519,120.72z"/>
		<path d="M21.137,118.312c0,0.866-0.333,1.531-0.997,1.994c-0.577,0.414-1.33,0.62-2.257,0.62c-0.89,0-1.655-0.199-2.293-0.602
			l0.356-1.014c0.627,0.803,1.367,1.203,2.22,1.203c0.502,0,0.954-0.164,1.354-0.489c0.401-0.325,0.601-0.739,0.601-1.241
			c0-0.652-0.382-1.159-1.146-1.523c-0.716-0.301-1.43-0.602-2.145-0.903c-0.765-0.437-1.147-1.058-1.147-1.862
			c0-0.814,0.288-1.441,0.865-1.879c0.527-0.391,1.222-0.584,2.087-0.584c0.753,0,1.405,0.17,1.957,0.508l-0.376,0.979
			c-0.476-0.74-1.092-1.109-1.843-1.109c-0.476,0-0.873,0.143-1.185,0.432c-0.313,0.289-0.471,0.684-0.471,1.185
			c0,0.702,0.383,1.229,1.148,1.581c0.715,0.275,1.423,0.552,2.125,0.827C20.753,116.845,21.137,117.473,21.137,118.312z"/>
		<path d="M27.231,120.626c-0.476,0.162-0.966,0.243-1.467,0.243c-0.651,0-1.156-0.188-1.513-0.563
			c-0.358-0.376-0.537-0.89-0.537-1.542v-5.907h-1.259v-0.471h1.259l-0.019-2.048l1.298-0.473v2.521h1.919v0.471h-1.919v5.248
			c0,0.741,0.069,1.28,0.208,1.618c0.226,0.525,0.657,0.79,1.298,0.79c0.163,0,0.407-0.038,0.733-0.113L27.231,120.626
			L27.231,120.626z"/>
		<path d="M30.842,108.983c0,0.239-0.084,0.445-0.254,0.62c-0.169,0.177-0.373,0.265-0.611,0.265c-0.237,0-0.441-0.088-0.61-0.265
			c-0.169-0.175-0.255-0.381-0.255-0.62c0-0.238,0.085-0.441,0.255-0.611c0.169-0.168,0.373-0.254,0.61-0.254
			c0.238,0,0.442,0.086,0.611,0.254C30.758,108.54,30.842,108.745,30.842,108.983z M30.523,120.72h-1.259v-8.333h1.259V120.72z"/>
		<path d="M37.5,120.626c-0.476,0.162-0.966,0.243-1.466,0.243c-0.653,0-1.157-0.188-1.515-0.563
			c-0.357-0.376-0.536-0.89-0.536-1.542v-5.907h-1.262v-0.471h1.261l-0.019-2.048l1.298-0.473v2.521h1.918v0.471h-1.918v5.248
			c0,0.741,0.068,1.28,0.207,1.618c0.226,0.525,0.659,0.79,1.298,0.79c0.163,0,0.408-0.038,0.733-0.113V120.626z"/>
		<path d="M46.756,112.387l-0.02,8.333h-0.902l-0.339-1.899c-0.64,1.428-1.699,2.145-3.179,2.145c-1.957,0-2.935-1.072-2.935-3.217
			v-5.361h1.26v5.229c0,1.818,0.721,2.728,2.164,2.728c0.803,0,1.445-0.348,1.928-1.045c0.483-0.695,0.724-1.584,0.724-2.661v-4.271
			L46.756,112.387z"/>
		<path d="M53.415,120.626c-0.476,0.162-0.966,0.243-1.466,0.243c-0.653,0-1.158-0.188-1.515-0.563
			c-0.356-0.376-0.536-0.89-0.536-1.542v-5.907h-1.26v-0.471h1.26l-0.019-2.048l1.298-0.473v2.521h1.918v0.471h-1.919v5.248
			c0,0.741,0.068,1.28,0.207,1.618c0.226,0.525,0.659,0.79,1.298,0.79c0.164,0,0.408-0.038,0.734-0.113V120.626z"/>
		<path d="M63.008,116.431c0,1.341-0.414,2.427-1.242,3.255c-0.828,0.827-1.907,1.24-3.236,1.24c-1.341,0-2.432-0.471-3.273-1.41
			c-0.689-0.764-1.034-1.806-1.034-3.123c0-1.328,0.427-2.395,1.279-3.197s1.943-1.203,3.273-1.203c1.254,0,2.273,0.426,3.057,1.278
			S63.008,115.177,63.008,116.431z M61.597,116.356c0-1.041-0.207-1.925-0.621-2.652c-0.515-0.877-1.254-1.316-2.219-1.316
			c-1.117,0-1.938,0.459-2.464,1.373c-0.438,0.74-0.659,1.705-0.659,2.896c0,1.067,0.232,1.951,0.696,2.654
			c0.552,0.814,1.335,1.221,2.351,1.221c1.004,0,1.761-0.471,2.276-1.41C61.383,118.356,61.597,117.436,61.597,116.356z"/>
		<path d="M76.982,111.409c0,0.903-0.351,1.669-1.053,2.295c-0.752,0.702-1.755,1.055-3.009,1.055c-0.338,0-0.69-0.025-1.053-0.076
			l0.095-0.15c1.216,0,2.144-0.282,2.785-0.848c0.601-0.525,0.902-1.24,0.902-2.144c0-0.814-0.289-1.491-0.865-2.03
			c-0.665-0.615-1.599-0.922-2.802-0.922c-0.164,0-0.333,0.006-0.509,0.019l-0.095,0.112l-0.019,12.001h-1.391v-12.659h2.745
			c1.368,0,2.439,0.345,3.216,1.034C76.633,109.723,76.982,110.495,76.982,111.409z"/>
		<path d="M86.311,116.431c0,1.341-0.414,2.427-1.243,3.255c-0.826,0.827-1.904,1.24-3.234,1.24c-1.341,0-2.432-0.471-3.272-1.41
			c-0.689-0.764-1.034-1.806-1.034-3.123c0-1.328,0.426-2.395,1.277-3.197c0.854-0.803,1.943-1.203,3.275-1.203
			c1.252,0,2.271,0.426,3.055,1.278C85.92,114.124,86.311,115.177,86.311,116.431z M84.9,116.356c0-1.041-0.207-1.925-0.62-2.652
			c-0.516-0.877-1.256-1.316-2.219-1.316c-1.116,0-1.938,0.459-2.464,1.373c-0.44,0.74-0.659,1.705-0.659,2.896
			c0,1.067,0.231,1.951,0.696,2.654c0.551,0.814,1.336,1.221,2.352,1.221c1.003,0,1.76-0.471,2.275-1.41
			C84.689,118.356,84.9,117.436,84.9,116.356z"/>
		<path d="M89.679,120.72h-1.297l0.018-13.487h1.279V120.72z"/>
		<path d="M94.043,108.983c0,0.239-0.085,0.445-0.255,0.62c-0.168,0.177-0.373,0.265-0.611,0.265s-0.441-0.088-0.611-0.265
			c-0.168-0.175-0.253-0.381-0.253-0.62c0-0.238,0.085-0.441,0.253-0.611c0.17-0.168,0.373-0.254,0.611-0.254
			s0.443,0.086,0.611,0.254C93.958,108.54,94.043,108.745,94.043,108.983z M93.722,120.72h-1.259v-8.333h1.259V120.72z"/>
		<path d="M100.7,120.626c-0.475,0.162-0.965,0.243-1.465,0.243c-0.653,0-1.158-0.188-1.516-0.563
			c-0.356-0.376-0.536-0.89-0.536-1.542v-5.907h-1.26v-0.471h1.26l-0.018-2.048l1.298-0.473v2.521h1.919v0.471h-1.919v5.248
			c0,0.741,0.067,1.28,0.207,1.618c0.224,0.525,0.657,0.79,1.298,0.79c0.162,0,0.408-0.038,0.732-0.113L100.7,120.626L100.7,120.626
			z"/>
		<path d="M109.861,115.661l-0.037,0.602h-6.434c-0.012,0.15-0.018,0.302-0.018,0.451c0,1.066,0.299,1.944,0.902,2.633
			c0.601,0.69,1.428,1.035,2.482,1.035c0.438,0,0.934-0.115,1.485-0.349c0.554-0.231,0.96-0.511,1.224-0.837l-0.096,0.695
			c-0.99,0.703-2.019,1.053-3.084,1.053c-1.293,0-2.328-0.424-3.105-1.27s-1.166-1.916-1.166-3.206c0-1.254,0.393-2.313,1.176-3.179
			c0.785-0.865,1.76-1.299,2.926-1.299c1.115,0,2.019,0.332,2.709,0.996C109.516,113.654,109.861,114.545,109.861,115.661z
			 M108.582,115.753c-0.051-2.219-0.873-3.329-2.463-3.329c-0.803,0-1.455,0.357-1.958,1.072c-0.438,0.615-0.688,1.367-0.752,2.257
			C103.146,115.753,104.872,115.753,108.582,115.753z M108.601,109.04l-4.684,1.598l-0.074-0.15l4.4-2.237L108.601,109.04z"/>
		<path d="M118.833,119.385l-0.075,0.676c-0.815,0.59-1.73,0.885-2.745,0.885c-1.432,0-2.553-0.383-3.369-1.146
			c-0.852-0.777-1.277-1.876-1.277-3.291c0-1.367,0.438-2.441,1.316-3.217c0.84-0.754,1.958-1.131,3.35-1.131
			c1.064,0,2,0.232,2.803,0.696l-0.379,1.054c-0.626-0.877-1.428-1.316-2.406-1.316c-1.054,0-1.883,0.383-2.483,1.147
			c-0.552,0.703-0.827,1.593-0.827,2.671c0,1.129,0.301,2.075,0.902,2.841c0.652,0.813,1.529,1.222,2.634,1.222
			C117.153,120.475,118.006,120.112,118.833,119.385z"/>
		<path d="M128.276,120.72l-1.259-0.019v-5.229c0-1.818-0.729-2.728-2.184-2.728c-0.803,0-1.441,0.349-1.918,1.045
			c-0.478,0.695-0.715,1.583-0.715,2.66v4.271l-1.299-0.019l0.021-8.334h0.884l0.357,1.9c0.639-1.43,1.699-2.144,3.179-2.144
			c1.957,0,2.934,1.071,2.934,3.216V120.72L128.276,120.72z"/>
		<path d="M132.453,108.983c0,0.239-0.086,0.445-0.254,0.62c-0.17,0.177-0.373,0.265-0.611,0.265c-0.239,0-0.442-0.088-0.612-0.265
			c-0.169-0.175-0.253-0.381-0.253-0.62c0-0.238,0.084-0.441,0.253-0.611c0.17-0.168,0.373-0.254,0.612-0.254
			c0.238,0,0.441,0.086,0.611,0.254C132.367,108.54,132.453,108.745,132.453,108.983z M132.132,120.72h-1.26v-8.333h1.26V120.72z"/>
		<path d="M141.988,119.385l-0.075,0.676c-0.815,0.59-1.729,0.885-2.745,0.885c-1.431,0-2.553-0.383-3.368-1.146
			c-0.853-0.777-1.278-1.876-1.278-3.291c0-1.367,0.439-2.441,1.316-3.217c0.84-0.754,1.957-1.131,3.35-1.131
			c1.065,0,2,0.232,2.802,0.696l-0.377,1.054c-0.626-0.877-1.429-1.316-2.407-1.316c-1.055,0-1.882,0.383-2.482,1.147
			c-0.553,0.703-0.828,1.593-0.828,2.671c0,1.129,0.302,2.075,0.902,2.841c0.651,0.813,1.53,1.222,2.633,1.222
			C140.308,120.475,141.16,120.112,141.988,119.385z"/>
		<path d="M152.277,116.431c0,1.341-0.413,2.427-1.24,3.255c-0.828,0.827-1.908,1.24-3.236,1.24c-1.342,0-2.433-0.471-3.275-1.41
			c-0.687-0.764-1.033-1.806-1.033-3.123c0-1.328,0.428-2.395,1.279-3.197c0.854-0.803,1.943-1.203,3.273-1.203
			c1.256,0,2.273,0.426,3.057,1.278S152.277,115.177,152.277,116.431z M150.868,116.356c0-1.041-0.206-1.925-0.62-2.652
			c-0.516-0.877-1.256-1.316-2.221-1.316c-1.117,0-1.938,0.459-2.465,1.373c-0.439,0.74-0.657,1.705-0.657,2.896
			c0,1.067,0.231,1.951,0.696,2.654c0.551,0.814,1.334,1.221,2.352,1.221c1.003,0,1.761-0.471,2.275-1.41
			C150.652,118.356,150.868,117.436,150.868,116.356z"/>
		<path d="M8.797,126.043l-0.018,13.469H7.876l-0.188-1.656c-0.389,0.64-0.783,1.096-1.184,1.373
			c-0.515,0.339-1.185,0.508-2.013,0.508c-1.217,0-2.157-0.443-2.822-1.335c-0.602-0.791-0.904-1.794-0.904-3.011
			c0-1.241,0.327-2.275,0.978-3.104c0.716-0.914,1.68-1.373,2.897-1.373c1.279,0,2.27,0.551,2.972,1.656l-0.019-6.528L8.797,126.043
			L8.797,126.043z M7.65,135.43c0-1.079-0.226-1.994-0.677-2.747c-0.489-0.827-1.154-1.241-1.994-1.241
			c-1.894,0-2.84,1.404-2.84,4.213c0,0.953,0.2,1.763,0.601,2.428c0.488,0.789,1.185,1.184,2.087,1.184
			c0.941,0,1.668-0.434,2.182-1.299C7.437,137.254,7.65,136.409,7.65,135.43z"/>
		<path d="M18.71,134.471l-0.038,0.602h-6.433c-0.013,0.15-0.019,0.301-0.019,0.451c0,1.066,0.301,1.943,0.903,2.633
			c0.601,0.689,1.428,1.035,2.483,1.035c0.438,0,0.934-0.116,1.486-0.35c0.552-0.231,0.959-0.512,1.222-0.837l-0.095,0.696
			c-0.99,0.703-2.019,1.052-3.083,1.052c-1.293,0-2.328-0.423-3.105-1.269c-0.777-0.846-1.166-1.916-1.166-3.207
			c0-1.254,0.392-2.313,1.176-3.179c0.783-0.865,1.758-1.298,2.925-1.298c1.117,0,2.019,0.332,2.708,0.996
			C18.364,132.463,18.71,133.355,18.71,134.471z M17.431,134.563c-0.05-2.219-0.872-3.328-2.464-3.328
			c-0.803,0-1.455,0.357-1.957,1.072c-0.439,0.615-0.69,1.367-0.752,2.256C11.995,134.563,13.719,134.563,17.431,134.563z"/>
		<path d="M36.241,137.592l-0.188,1.186c-1.492,0.627-2.972,0.941-4.438,0.941c-1.781,0-3.305-0.534-4.571-1.6
			c-1.418-1.178-2.125-2.752-2.125-4.723c0-1.855,0.584-3.41,1.75-4.663c1.228-1.331,2.827-1.995,4.796-1.995
			c1.794,0,3.374,0.502,4.74,1.506l-0.451,1.203c-0.54-0.84-1.16-1.424-1.862-1.75c-0.564-0.25-1.273-0.377-2.125-0.377
			c-1.655,0-2.972,0.652-3.949,1.959c-0.865,1.152-1.299,2.526-1.299,4.117c0,1.768,0.52,3.18,1.561,4.232
			c1.042,1.053,2.371,1.58,3.988,1.58c0.677,0,1.411-0.152,2.2-0.461C35.058,138.44,35.714,138.057,36.241,137.592z"/>
		<path d="M45.777,139.323c-0.288,0.139-0.633,0.207-1.034,0.207c-0.828,0-1.292-0.376-1.392-1.128
			c-0.502,0.489-0.934,0.827-1.298,1.015c-0.438,0.213-0.985,0.319-1.636,0.319c-0.64,0-1.182-0.2-1.627-0.601
			c-0.445-0.4-0.667-0.915-0.667-1.543c0-0.891,0.401-1.605,1.204-2.145c0.539-0.363,1.322-0.67,2.351-0.923
			c0.99-0.251,1.514-0.397,1.57-0.442c0.057-0.043,0.085-0.227,0.085-0.555c0-1.417-0.683-2.125-2.051-2.125
			c-0.916,0-1.705,0.42-2.37,1.26v-0.846c0.803-0.678,1.761-1.014,2.877-1.014c0.878,0,1.568,0.236,2.07,0.713
			c0.501,0.479,0.752,1.148,0.752,2.014l0.019,4.23c0,0.954,0.282,1.431,0.846,1.431c0.087,0,0.183-0.014,0.282-0.038
			L45.777,139.323z M43.333,134.508c-1.38,0.438-2.189,0.721-2.427,0.846c-0.903,0.477-1.354,1.136-1.354,1.975
			c0,1.179,0.557,1.77,1.674,1.77c0.803,0,1.505-0.429,2.107-1.28V134.508z"/>
		<path d="M52.549,137.122c0,0.867-0.333,1.531-0.997,1.994c-0.577,0.414-1.33,0.621-2.257,0.621c-0.89,0-1.655-0.2-2.293-0.602
			l0.356-1.015c0.627,0.804,1.367,1.204,2.22,1.204c0.501,0,0.953-0.164,1.354-0.49c0.401-0.324,0.601-0.738,0.601-1.24
			c0-0.652-0.382-1.16-1.146-1.524c-0.716-0.301-1.43-0.601-2.145-0.903c-0.765-0.437-1.147-1.057-1.147-1.861
			c0-0.814,0.288-1.441,0.865-1.88c0.527-0.39,1.222-0.584,2.087-0.584c0.753,0,1.405,0.171,1.957,0.509l-0.376,0.979
			c-0.476-0.74-1.092-1.109-1.843-1.109c-0.476,0-0.873,0.143-1.185,0.432c-0.313,0.289-0.47,0.684-0.47,1.184
			c0,0.703,0.382,1.23,1.147,1.581c0.715,0.276,1.423,0.552,2.125,0.827C52.166,135.655,52.549,136.283,52.549,137.122z"/>
		<path d="M58.644,139.436c-0.476,0.162-0.966,0.244-1.467,0.244c-0.651,0-1.156-0.188-1.513-0.564
			c-0.358-0.375-0.537-0.89-0.537-1.541v-5.908h-1.259v-0.471h1.259l-0.019-2.049l1.298-0.471v2.52h1.919v0.471h-1.919v5.248
			c0,0.74,0.069,1.28,0.208,1.619c0.226,0.525,0.657,0.789,1.298,0.789c0.163,0,0.407-0.037,0.733-0.113L58.644,139.436
			L58.644,139.436z"/>
		<path d="M67.333,134.471l-0.037,0.602h-6.433c-0.013,0.15-0.019,0.301-0.019,0.451c0,1.066,0.3,1.943,0.903,2.633
			c0.601,0.689,1.428,1.035,2.483,1.035c0.438,0,0.933-0.116,1.486-0.35c0.552-0.231,0.959-0.512,1.222-0.837l-0.095,0.696
			c-0.99,0.703-2.019,1.052-3.084,1.052c-1.292,0-2.328-0.423-3.104-1.269s-1.166-1.916-1.166-3.207
			c0-1.254,0.392-2.313,1.176-3.179c0.783-0.865,1.758-1.298,2.925-1.298c1.117,0,2.02,0.332,2.708,0.996
			C66.988,132.463,67.333,133.355,67.333,134.471z M66.054,134.563c-0.05-2.219-0.872-3.328-2.464-3.328
			c-0.803,0-1.455,0.357-1.957,1.072c-0.438,0.615-0.69,1.367-0.752,2.256C60.618,134.563,62.343,134.563,66.054,134.563z"/>
		<path d="M70.701,139.53h-1.298l0.019-13.486h1.279V139.53z"/>
		<path d="M81.552,135.241c0,1.342-0.414,2.428-1.241,3.255s-1.907,1.241-3.233,1.241c-1.342,0-2.434-0.471-3.274-1.41
			c-0.688-0.764-1.034-1.807-1.034-3.123c0-1.328,0.427-2.395,1.279-3.198c0.853-0.802,1.944-1.202,3.274-1.202
			c1.253,0,2.271,0.425,3.055,1.277C81.16,132.934,81.552,133.987,81.552,135.241z M80.142,135.167c0-1.042-0.206-1.926-0.62-2.652
			c-0.515-0.878-1.255-1.316-2.22-1.316c-1.116,0-1.937,0.458-2.463,1.373c-0.438,0.74-0.657,1.705-0.657,2.896
			c0,1.066,0.231,1.951,0.695,2.653c0.552,0.815,1.335,1.222,2.352,1.222c1.001,0,1.759-0.471,2.274-1.41
			C79.928,137.167,80.142,136.247,80.142,135.167z"/>
		<path d="M96.431,135.88c0,1.19-0.45,2.113-1.354,2.765c-0.816,0.59-1.844,0.885-3.086,0.885h-3.479v-12.658h3.535
			c1.066,0,1.924,0.289,2.577,0.865c0.603,0.553,0.903,1.229,0.903,2.031c0,0.678-0.232,1.299-0.697,1.862
			c-0.5,0.614-1.146,0.978-1.937,1.091C95.251,132.833,96.431,133.887,96.431,135.88z M94.024,129.975
			c0-1.154-0.521-1.932-1.563-2.332c-0.563-0.215-1.416-0.32-2.558-0.32v5.456c1.467,0,2.521-0.21,3.16-0.632
			C93.705,131.727,94.024,131.004,94.024,129.975z M94.851,136.125c0-0.989-0.297-1.75-0.885-2.275
			c-0.564-0.489-1.34-0.734-2.332-0.734c-0.188,0-0.477,0.008-0.865,0.02c-0.401,0-0.689,0-0.865,0c0,1.041,0,1.752,0,2.125
			c0,0.716,0,1.549,0,2.502c0,0.853,0,1.254,0,1.204c0.502,0.037,0.947,0.056,1.336,0.056
			C93.646,139.022,94.851,138.057,94.851,136.125z"/>
		<path d="M102.94,130.878l-0.133,1.372c-0.226-0.188-0.526-0.281-0.901-0.281c-1.419,0-2.127,1.022-2.127,3.066l0.02,4.496
			l-1.298-0.02l0.019-8.314h0.885l0.357,1.656C100.437,131.536,101.498,130.878,102.94,130.878z"/>
		<path d="M111.667,139.323c-0.291,0.139-0.636,0.207-1.035,0.207c-0.829,0-1.295-0.376-1.393-1.128
			c-0.502,0.489-0.934,0.827-1.3,1.015c-0.438,0.213-0.983,0.319-1.635,0.319c-0.64,0-1.181-0.2-1.627-0.601
			s-0.669-0.915-0.669-1.543c0-0.891,0.402-1.605,1.205-2.145c0.539-0.363,1.322-0.67,2.351-0.923
			c0.99-0.251,1.515-0.397,1.57-0.442c0.057-0.043,0.085-0.227,0.085-0.555c0-1.417-0.684-2.125-2.049-2.125
			c-0.916,0-1.707,0.42-2.371,1.26v-0.846c0.803-0.678,1.762-1.014,2.877-1.014c0.878,0,1.568,0.236,2.068,0.713
			c0.504,0.479,0.752,1.148,0.752,2.014l0.021,4.23c0,0.954,0.281,1.431,0.846,1.431c0.088,0,0.183-0.014,0.282-0.038
			L111.667,139.323z M109.222,134.508c-1.381,0.438-2.189,0.721-2.427,0.846c-0.903,0.477-1.354,1.136-1.354,1.975
			c0,1.179,0.557,1.77,1.673,1.77c0.803,0,1.505-0.429,2.107-1.28V134.508z"/>
		<path d="M120.64,139.53l-1.261-0.018v-5.23c0-1.818-0.728-2.727-2.183-2.727c-0.803,0-1.441,0.348-1.919,1.044
			c-0.476,0.696-0.714,1.583-0.714,2.661v4.27l-1.301-0.018l0.021-8.334h0.884l0.358,1.9c0.64-1.43,1.7-2.145,3.179-2.145
			c1.957,0,2.936,1.071,2.936,3.216V139.53L120.64,139.53z"/>
		<path d="M129.986,138.195l-0.074,0.677c-0.814,0.59-1.73,0.884-2.746,0.884c-1.429,0-2.553-0.381-3.366-1.146
			c-0.853-0.776-1.28-1.876-1.28-3.291c0-1.366,0.439-2.44,1.316-3.217c0.842-0.753,1.957-1.13,3.35-1.13
			c1.065,0,2,0.232,2.802,0.695l-0.375,1.055c-0.628-0.878-1.431-1.316-2.407-1.316c-1.054,0-1.881,0.383-2.484,1.146
			c-0.553,0.703-0.828,1.593-0.828,2.672c0,1.128,0.302,2.074,0.903,2.84c0.65,0.813,1.529,1.222,2.632,1.222
			C128.306,139.286,129.158,138.922,129.986,138.195z"/>
		<path d="M140.275,135.241c0,1.342-0.413,2.428-1.24,3.255c-0.828,0.827-1.905,1.241-3.236,1.241c-1.341,0-2.433-0.471-3.272-1.41
			c-0.689-0.764-1.036-1.807-1.036-3.123c0-1.328,0.428-2.395,1.279-3.198c0.854-0.802,1.943-1.202,3.275-1.202
			c1.254,0,2.271,0.425,3.055,1.277C139.884,132.934,140.275,133.987,140.275,135.241z M138.867,135.167
			c0-1.042-0.207-1.926-0.621-2.652c-0.516-0.878-1.256-1.316-2.221-1.316c-1.115,0-1.938,0.458-2.463,1.373
			c-0.441,0.74-0.659,1.705-0.659,2.896c0,1.066,0.231,1.951,0.696,2.653c0.551,0.815,1.336,1.222,2.352,1.222
			c1.003,0,1.761-0.471,2.275-1.41C138.652,137.167,138.867,136.247,138.867,135.167z"/>
	</g>
</g>
</svg>
